<?xml version="1.0" standalone="no"?>
<!DOCTYPE svg PUBLIC "-//W3C//DTD SVG 20010904//EN"
 "http://www.w3.org/TR/2001/REC-SVG-20010904/DTD/svg10.dtd">
<svg version="1.0" xmlns="http://www.w3.org/2000/svg"
 width="1024.000000pt" height="1024.000000pt" viewBox="0 0 1024.000000 1024.000000"
 preserveAspectRatio="xMidYMid meet">

<g transform="translate(0.000000,1024.000000) scale(0.100000,-0.100000)"
fill="#000000" stroke="none">
<path d="M4145 9340 c-134 -28 -297 -130 -420 -262 -167 -178 -306 -411 -384
-644 -26 -77 -34 -90 -58 -98 -42 -13 -312 -108 -548 -193 -115 -41 -266 -95
-335 -119 -69 -25 -172 -62 -230 -84 -58 -22 -303 -112 -545 -200 -242 -88
-496 -181 -565 -206 -195 -72 -293 -126 -375 -209 -130 -132 -176 -236 -183
-421 -4 -101 -1 -134 17 -204 20 -75 151 -517 236 -795 37 -120 148 -487 275
-910 45 -148 114 -378 155 -510 114 -373 227 -755 310 -1048 83 -293 101 -347
141 -407 30 -46 106 -105 147 -115 l27 -7 0 -143 c0 -184 28 -284 104 -375 12
-13 14 -19 5 -12 -9 6 -20 8 -24 4 -5 -4 -5 -2 -2 4 4 7 0 17 -8 24 -12 10
-15 9 -15 -4 0 -9 -5 -16 -11 -16 -7 0 -8 11 -4 30 4 16 4 30 2 30 -11 0 -48
-93 -43 -107 3 -8 2 -12 -3 -9 -12 8 -21 -18 -14 -43 4 -17 2 -20 -13 -14 -14
5 -13 0 7 -28 14 -19 31 -54 38 -77 11 -41 13 -43 26 -25 14 17 14 17 15 -5 0
-15 9 -26 25 -32 14 -5 25 -16 25 -24 0 -7 7 -16 15 -20 8 -3 15 -13 15 -22 0
-10 3 -15 6 -11 3 3 16 -3 27 -14 12 -11 27 -17 34 -15 7 3 19 -2 28 -11 9 -8
26 -16 40 -17 13 0 23 -5 22 -11 -1 -5 6 -9 16 -9 9 1 17 -4 17 -12 0 -8 6
-14 14 -14 8 0 22 -10 30 -21 10 -15 20 -19 33 -15 9 4 14 4 10 0 -4 -4 13
-20 38 -36 25 -15 45 -35 45 -43 0 -8 7 -15 16 -15 8 0 13 -4 10 -9 -3 -5 2
-15 11 -22 15 -12 16 -12 10 4 -3 9 -5 17 -3 17 3 0 11 3 20 6 11 4 16 1 16
-11 0 -9 4 -14 9 -10 5 3 12 1 16 -5 4 -6 10 -8 15 -5 5 3 12 -4 15 -16 6 -17
9 -19 16 -8 6 10 9 11 9 2 0 -7 9 -13 20 -13 12 0 20 -7 20 -16 0 -11 6 -15
19 -11 15 4 24 -4 36 -30 14 -29 19 -32 32 -22 12 11 16 10 23 -1 19 -35 48
-61 53 -48 3 10 9 9 24 -4 11 -10 28 -18 38 -18 10 0 26 -7 36 -16 13 -12 22
-13 38 -5 25 14 42 14 18 0 -9 -6 -15 -15 -12 -20 4 -5 10 -7 15 -4 5 3 17 -6
26 -20 13 -20 19 -23 25 -13 7 10 9 10 9 0 0 -7 11 -17 25 -24 13 -6 22 -16
18 -21 -4 -6 0 -8 10 -4 19 7 67 -11 67 -26 0 -5 7 -7 15 -3 8 3 15 1 15 -5 0
-15 69 -81 79 -74 5 2 14 -2 21 -10 7 -8 23 -15 36 -15 13 0 24 -4 24 -9 0 -5
9 -12 20 -16 11 -3 19 -9 19 -13 -4 -22 3 -42 12 -42 7 0 21 -10 33 -23 12
-13 27 -22 34 -19 7 2 12 -1 12 -7 0 -6 7 -11 17 -11 9 0 13 -3 10 -6 -3 -4 5
-16 19 -26 14 -11 28 -18 31 -14 7 7 33 -40 33 -60 0 -8 6 -14 13 -14 7 0 19
-9 27 -20 8 -11 20 -20 27 -20 15 0 17 -16 3 -23 -6 -3 -5 -4 2 -3 19 5 48
-13 48 -28 0 -10 7 -12 22 -8 17 4 20 2 15 -12 -4 -9 -3 -15 1 -12 4 2 40 -6
79 -19 39 -13 135 -34 213 -45 427 -62 531 -49 975 128 326 130 1042 413 1560
617 88 35 270 107 405 160 293 116 1164 456 1270 495 41 16 181 70 310 120
129 51 316 123 415 160 100 38 216 85 258 105 131 62 227 169 273 305 16 48
19 86 19 285 0 226 -1 231 -27 298 -53 131 -94 174 -264 274 -141 84 -874 473
-1561 830 -178 93 -323 170 -323 173 0 3 48 28 108 57 237 113 494 234 627
293 77 34 178 80 223 101 46 22 85 39 87 39 2 0 32 13 67 29 35 15 117 52 183
81 140 61 167 78 205 132 54 74 48 175 -13 245 -33 37 -142 95 -207 108 -73
15 -644 246 -669 270 -2 2 178 94 398 205 422 211 469 240 514 325 21 38 22
52 22 306 l0 266 -28 36 c-51 68 -53 68 -717 196 -140 27 -349 66 -465 86
-115 21 -216 39 -223 41 -7 2 19 43 66 101 117 146 314 413 334 452 29 57 24
97 -17 138 l-36 36 -137 -6 c-142 -6 -359 -30 -662 -72 -96 -14 -176 -25 -177
-25 -2 0 -3 149 -3 330 l0 330 -40 0 c-36 0 -41 3 -54 35 -22 52 -112 142
-170 169 -105 50 -247 52 -371 6 -33 -12 -65 -22 -72 -23 -7 -1 -27 23 -45 53
-40 66 -112 122 -186 145 -139 44 -305 -28 -494 -216 -88 -87 -95 -92 -148
-99 -67 -10 -114 -27 -208 -74 -39 -20 -73 -36 -75 -36 -3 0 -31 42 -63 93
-37 59 -95 130 -164 199 -133 135 -199 170 -325 174 -44 2 -98 -1 -120 -6z
m271 -222 c216 -223 425 -546 524 -811 19 -51 29 -92 24 -96 -5 -5 -40 -21
-79 -36 -163 -64 -311 -166 -374 -258 -55 -82 -104 -243 -140 -463 -30 -180
-41 -329 -48 -664 -5 -280 -2 -371 22 -625 8 -77 -51 161 -68 280 l-15 100 5
-105 c2 -58 9 -131 14 -164 17 -96 4 -73 -20 37 -40 189 -53 316 -58 577 -4
198 -1 286 11 395 18 156 54 326 91 436 29 84 27 102 -3 32 -34 -80 -60 -170
-88 -297 -14 -66 -32 -141 -40 -166 -13 -44 -13 -42 -8 50 9 166 73 420 140
551 89 178 237 322 422 414 40 19 72 38 72 41 0 10 -156 267 -215 354 -91 133
-263 347 -265 328 0 -4 7 -13 15 -22 9 -8 31 -36 50 -61 29 -37 31 -43 13 -32
-14 9 -46 13 -83 12 -34 -2 -75 3 -94 11 -21 9 -63 14 -102 13 l-68 -2 -100
-101 c-158 -159 -265 -311 -351 -503 -27 -61 -52 -122 -55 -136 -4 -14 -15
-33 -25 -42 -17 -16 -18 -15 -11 17 49 209 203 510 355 693 l59 70 -72 -70
c-96 -92 -173 -196 -245 -328 -61 -112 -76 -131 -76 -98 0 61 128 296 230 423
114 142 225 230 356 282 57 23 160 51 200 55 6 1 51 -41 100 -91z m1320 10
c62 -65 94 -107 94 -123 0 -8 -28 -29 -62 -48 -35 -20 -78 -47 -97 -61 -19
-14 -39 -23 -44 -19 -6 4 -7 1 -3 -6 5 -8 0 -14 -13 -18 -11 -3 -18 -10 -14
-16 4 -6 1 -7 -6 -2 -8 4 -25 -2 -42 -14 -39 -29 -56 -23 -27 9 24 26 34 54
15 43 -75 -43 -197 -166 -314 -318 -31 -41 -59 -73 -61 -71 -6 7 88 149 140
211 28 33 89 97 137 143 73 70 78 78 36 48 -49 -34 -208 -191 -294 -291 l-43
-50 27 50 c40 73 166 226 270 330 94 93 95 97 5 31 -89 -65 -218 -195 -281
-283 -33 -45 -73 -92 -90 -104 l-31 -21 30 58 c61 119 246 335 384 447 55 45
196 127 218 127 9 0 38 -24 66 -52z m578 -139 c46 -13 129 -85 106 -92 -242
-72 -407 -148 -536 -245 -293 -221 -533 -605 -721 -1152 -136 -395 -222 -742
-303 -1230 -23 -134 -43 -246 -45 -249 -9 -8 -4 110 20 524 6 106 -7 77 -25
-58 -19 -139 -22 -95 -5 69 50 471 243 1132 455 1555 134 266 280 466 450 616
232 205 457 303 604 262z m-1338 -241 c-14 -24 -30 -44 -35 -46 -5 -2 -17 10
-25 27 -17 32 -14 37 32 51 51 16 54 12 28 -32z m514 38 c0 -2 -8 -10 -17 -17
-16 -13 -17 -12 -4 4 13 16 21 21 21 13z m1022 -309 l-3 -273 -67 -10 c-37 -6
-71 -8 -77 -4 -20 15 -182 51 -250 57 -75 5 -120 -2 -202 -36 -60 -24 -72 -19
-15 7 37 16 37 16 10 20 -16 2 -28 8 -28 14 0 6 -21 -7 -46 -28 -78 -63 -35
-2 75 106 107 106 155 140 316 225 173 90 172 99 -1 25 -214 -90 -380 -224
-541 -436 -80 -107 -103 -129 -103 -103 0 5 -5 7 -10 4 -6 -4 -8 -11 -5 -16 4
-5 1 -9 -4 -9 -14 0 -14 6 0 31 5 11 14 17 19 14 6 -3 7 0 5 7 -3 8 18 47 46
88 145 212 316 368 505 463 76 38 326 127 359 127 20 0 20 -6 17 -273z m-2242
65 c-106 -83 -183 -179 -230 -288 -21 -51 -23 -53 -103 -84 -45 -18 -94 -39
-109 -46 -27 -14 -28 -13 -28 9 0 37 28 66 78 81 26 8 46 19 45 25 -2 5 -21
40 -44 77 -37 61 -53 123 -36 140 6 7 73 -83 111 -148 15 -27 29 -48 31 -48 2
0 18 26 35 58 44 83 101 144 186 202 80 53 124 68 64 22z m22 -266 c-195 -205
-327 -484 -412 -869 -12 -54 -24 -96 -27 -93 -7 7 14 179 33 271 34 164 125
388 211 518 49 73 144 171 208 213 28 18 52 33 54 33 2 1 -28 -32 -67 -73z
m-1012 -113 c0 -9 -8 -25 -17 -36 -10 -11 -12 -17 -5 -13 8 5 12 1 12 -12 0
-11 -6 -24 -12 -30 -7 -5 -168 -64 -358 -132 -388 -137 -394 -139 -907 -331
-205 -76 -502 -186 -660 -243 -158 -57 -315 -116 -348 -131 -110 -49 -175
-119 -210 -224 -29 -89 -17 -171 63 -436 39 -126 100 -331 137 -455 38 -124
81 -268 97 -320 16 -52 49 -165 74 -250 25 -85 84 -281 131 -435 46 -154 102
-338 123 -410 21 -71 86 -290 145 -485 59 -195 145 -483 191 -639 99 -332 105
-345 142 -338 15 3 144 48 287 100 321 118 383 133 130 32 -104 -41 -249 -100
-320 -130 -133 -56 -159 -63 -170 -45 -4 6 -24 70 -45 143 -51 176 -210 705
-300 997 -40 129 -101 330 -135 445 -73 245 -235 783 -375 1245 -54 179 -112
372 -129 430 -16 58 -47 159 -67 225 -32 102 -38 134 -38 215 -1 81 3 104 26
160 21 51 23 60 8 42 -29 -35 -62 -131 -68 -194 -2 -34 2 -87 12 -130 9 -40
21 -95 27 -123 6 -27 27 -97 46 -155 55 -168 182 -596 188 -637 l5 -38 -15 40
c-15 38 -96 308 -152 510 -14 50 -43 142 -63 205 -63 190 -72 230 -72 320 0
105 23 176 87 265 84 119 140 150 500 279 132 48 308 112 390 143 377 140
1079 396 1295 473 96 34 209 74 250 90 90 34 100 35 100 13z m4039 -80 c-40
-44 -153 -176 -169 -197 -13 -17 -13 -19 -1 -11 8 5 5 -6 -8 -23 -12 -18 -27
-29 -33 -26 -6 4 -8 3 -5 -2 3 -6 -17 -41 -46 -80 -28 -38 -81 -109 -118 -159
-59 -81 -201 -276 -318 -440 -47 -66 -134 -204 -246 -390 -501 -831 -804
-1488 -1055 -2280 -104 -331 -101 -322 -94 -255 15 135 104 446 237 825 50
143 51 144 33 115 -12 -19 -15 -21 -16 -7 0 9 -6 16 -12 15 -8 -2 -12 7 -11
25 1 15 -2 25 -8 22 -5 -4 -9 -15 -9 -26 0 -17 -6 -19 -40 -17 -22 2 -40 7
-40 11 0 5 -4 6 -10 2 -5 -3 -17 -2 -27 4 -10 5 -42 19 -70 32 -29 12 -52 24
-50 25 2 2 34 -3 72 -11 98 -21 124 -17 40 6 -55 15 -322 69 -341 69 -9 0 -3
109 11 205 16 114 17 120 10 113 -7 -6 -37 -166 -37 -191 1 -9 -3 -15 -9 -12
-5 4 -14 -6 -20 -22 -8 -21 -12 -24 -19 -13 -6 10 -10 -2 -13 -35 -9 -117 -6
121 3 300 28 521 120 1038 266 1490 91 281 210 584 260 660 12 18 46 30 182
63 357 88 516 121 764 156 260 37 732 82 897 85 l75 1 -25 -27z m-2215 -5
c-44 -75 -54 -85 -95 -97 -133 -40 -330 -156 -371 -218 -57 -89 -91 -241 -107
-482 -5 -79 -14 -148 -20 -154 -14 -14 -14 108 0 352 9 169 12 191 40 256 54
130 186 224 459 326 84 31 105 35 94 17z m-1194 -118 c0 -25 -26 -58 -68 -85
-67 -44 -84 -73 -119 -213 -33 -131 -41 -124 -23 18 23 174 23 174 108 235 75
53 102 65 102 45z m1105 -31 c-10 -15 -25 -10 -19 6 4 8 10 12 15 9 5 -3 7
-10 4 -15z m-45 -2 c0 -11 -34 -104 -42 -113 -5 -7 -22 -47 -37 -90 -37 -101
-60 -152 -61 -137 0 9 -21 11 -80 7 -67 -5 -82 -3 -97 12 -17 16 -19 13 -40
-67 l-23 -84 6 60 c17 195 62 259 254 360 97 50 120 60 120 52z m-1683 -129
c31 -7 48 -19 62 -42 24 -39 518 -1027 722 -1442 515 -1051 683 -1418 856
-1874 47 -124 94 -242 105 -263 11 -22 18 -41 15 -43 -2 -2 -26 24 -53 58
-237 302 -627 674 -1089 1039 -158 125 -730 550 -1010 751 -165 118 -465 334
-666 479 -202 145 -442 318 -533 384 -92 65 -169 122 -172 126 -2 4 63 63 144
131 412 348 805 579 1131 667 176 48 369 59 488 29z m4130 -318 c176 -35 935
-183 1085 -212 31 -6 64 -18 72 -27 11 -13 15 -60 17 -239 3 -197 1 -224 -14
-239 -9 -9 -20 -13 -24 -9 -5 4 -10 105 -13 224 l-5 216 -85 18 c-47 9 -173
35 -280 57 -107 22 -271 57 -365 76 -93 20 -231 48 -305 61 -280 50 -330 61
-330 74 0 11 29 40 40 40 5 0 99 -18 207 -40z m-14 -95 c50 -8 202 -38 337
-66 135 -27 313 -64 395 -80 217 -43 325 -68 346 -80 17 -8 19 -22 19 -107 -1
-71 -3 -92 -11 -79 -5 9 -19 17 -29 17 -11 0 -20 5 -20 10 0 6 -13 10 -30 10
-21 0 -30 5 -30 16 0 8 -5 12 -11 9 -6 -4 -29 0 -52 8 -23 9 -80 23 -126 32
-46 9 -106 27 -132 41 -27 13 -59 24 -71 24 -13 0 -52 16 -88 35 -35 19 -75
35 -87 35 -13 0 -57 18 -97 39 -44 24 -83 38 -99 37 -15 -2 -24 1 -21 5 3 5
-5 9 -18 10 -13 0 -32 5 -43 10 -14 6 -6 8 30 4 71 -6 49 0 -110 35 -76 16
-144 35 -149 40 -13 13 -13 13 97 -5z m104 -61 c-3 -3 -12 -4 -19 -1 -8 3 -5
6 6 6 11 1 17 -2 13 -5z m-5977 -167 c-25 -23 -77 -68 -115 -101 -88 -74 -185
-165 -185 -174 0 -9 7 -13 294 -204 130 -87 236 -159 236 -161 0 -2 -19 -23
-41 -47 -23 -24 -48 -58 -55 -76 -18 -43 -18 -116 1 -177 l14 -48 -73 -197
c-60 -161 -99 -280 -121 -367 -1 -5 -19 44 -39 110 -62 200 -158 479 -169 490
-6 7 -7 3 -3 -10 3 -11 10 -42 16 -70 6 -27 20 -79 30 -115 11 -36 47 -164 81
-285 33 -121 73 -260 89 -310 46 -146 63 -213 57 -227 -3 -7 -6 -1 -6 13 -1
14 -8 34 -16 45 -14 18 -15 17 -9 -11 9 -39 35 -85 46 -79 10 6 10 6 -2 -36
-9 -33 -5 -58 22 -129 14 -38 68 -240 67 -254 -1 -15 -30 66 -69 188 -110 350
-287 932 -424 1395 -30 102 -71 239 -91 305 -85 276 -87 287 -58 336 10 16 36
38 58 49 35 17 492 188 505 189 3 0 -15 -18 -40 -42z m5580 -68 c172 -47 460
-129 810 -229 80 -23 202 -58 273 -78 70 -19 127 -38 127 -41 0 -3 -39 -28
-88 -55 -603 -341 -1244 -774 -1792 -1210 -303 -242 -672 -613 -869 -876 -35
-47 -68 -89 -73 -95 -14 -15 22 72 91 222 33 73 77 172 96 220 20 47 56 114
81 147 24 34 91 126 148 206 58 80 118 160 134 179 l28 34 32 -18 32 -19 30
29 c32 31 38 45 18 45 -7 0 -25 8 -40 18 l-27 18 94 114 c52 63 95 118 95 122
0 12 -120 69 -130 63 -6 -4 -10 -1 -10 5 0 6 -4 8 -10 5 -5 -3 -10 -1 -10 4 0
19 17 13 161 -59 l140 -70 30 29 29 30 -95 56 -95 55 83 96 c45 53 81 102 79
110 -2 11 4 11 35 0 47 -15 95 -15 100 1 2 7 -14 21 -37 33 -48 24 -47 36 2
24 18 -5 36 -9 40 -9 10 0 108 166 108 182 0 7 -7 13 -15 13 -8 0 -12 -6 -9
-13 6 -16 -51 -130 -74 -149 -13 -11 -14 -11 -10 2 7 19 -10 52 -22 45 -6 -3
-21 5 -35 19 -20 20 -32 24 -58 21 -17 -3 -26 -3 -19 1 13 6 17 55 5 53 -23
-4 -43 2 -38 11 3 6 2 10 -2 10 -5 0 -16 -18 -26 -40 -9 -23 -22 -38 -27 -35
-10 6 9 43 68 138 17 29 28 37 40 32 9 -4 67 -25 127 -47 61 -21 193 -70 294
-109 l184 -69 34 26 c19 15 31 30 26 34 -8 9 -210 90 -323 130 -36 13 -69 26
-75 30 -5 4 -45 20 -88 35 -42 15 -75 30 -73 33 3 2 26 -3 52 -12 59 -20 74
-20 48 -1 -12 9 -14 14 -6 15 22 0 52 -20 52 -35 0 -8 4 -15 9 -15 9 0 61 173
61 203 0 20 -19 23 -24 5 -2 -7 -12 -49 -22 -92 -10 -43 -20 -74 -22 -68 -1 5
4 37 12 70 21 79 20 87 -9 88 -14 1 -25 -2 -25 -6 0 -12 -57 -33 -69 -25 -8 4
-8 -2 -1 -20 6 -15 10 -39 10 -55 0 -22 5 -30 23 -33 12 -2 3 -5 -20 -6 -28
-1 -43 3 -44 12 0 9 -2 9 -5 0 -6 -14 -31 -7 -56 15 -21 17 -19 22 59 138 l54
81 82 -24 c45 -14 168 -51 272 -83 105 -32 254 -76 332 -99 l142 -42 35 23
c20 13 36 26 36 30 0 8 -62 28 -300 98 -489 146 -553 167 -543 184 4 6 34 52
67 101 34 50 67 102 75 118 7 15 19 27 25 27 6 0 94 -23 196 -51z m-518 -529
c6 0 9 -2 6 -5 -9 -10 -59 15 -53 25 4 6 12 4 21 -5 9 -8 20 -15 26 -15z
m-206 -270 c0 -11 -4 -20 -8 -20 -10 0 -11 24 -1 33 9 9 9 10 9 -13z m-50 -78
c-18 -16 -18 -16 -6 6 6 13 14 21 18 18 3 -4 -2 -14 -12 -24z m279 -2 c3 -6
-1 -7 -9 -4 -18 7 -21 14 -7 14 6 0 13 -4 16 -10z m-45 -45 c9 -10 9 -15 1
-15 -6 0 -11 5 -11 10 0 6 -5 10 -11 10 -5 0 -7 -5 -3 -12 4 -7 3 -8 -5 -4
-12 8 -6 26 8 26 5 0 14 -7 21 -15z m1259 -31 c14 -12 -19 -1 -35 12 -18 14
-18 14 6 3 14 -6 27 -13 29 -15z m106 -43 c117 -51 335 -141 425 -176 179 -68
238 -114 223 -175 -14 -60 -38 -75 -363 -215 -816 -351 -1506 -694 -2050
-1018 -228 -136 -551 -350 -605 -401 -22 -21 -52 -45 -68 -52 l-28 -15 35 48
c43 61 77 92 104 98 11 2 62 35 114 73 262 194 482 331 858 537 224 123 889
451 1133 559 132 59 251 113 265 122 l27 15 -25 -6 c-32 -7 -99 -14 -83 -8 10
3 9 11 -2 34 -13 24 -26 32 -75 44 -20 6 -40 19 -40 28 0 6 8 19 18 30 13 16
14 19 2 15 -47 -18 -296 -131 -349 -158 -108 -54 -77 -26 41 38 205 111 391
196 766 352 32 14 38 38 16 60 -10 11 -91 50 -179 88 -88 38 -182 81 -210 96
-60 32 -45 29 50 -13z m-1705 -80 c0 -5 8 -12 18 -15 9 -4 28 -15 42 -27 20
-15 13 -14 -32 7 -31 15 -55 31 -52 36 7 11 24 10 24 -1z m1272 -157 c180 -78
272 -123 265 -130 -3 -3 -130 -68 -284 -143 -554 -274 -974 -505 -1257 -693
-65 -43 -112 -71 -105 -61 38 45 314 237 519 360 126 75 228 139 226 141 -2 2
-18 -4 -36 -13 -22 -12 -35 -13 -44 -6 -7 6 -16 8 -19 4 -4 -3 -7 -4 -7 -1 0
20 461 314 652 417 84 44 118 49 175 26 81 -34 36 -2 -101 70 -80 43 -146 82
-146 86 0 13 -3 14 162 -57z m-5061 -21 c12 -38 32 -90 44 -118 l22 -50 144
-44 c243 -75 444 -159 668 -280 116 -63 271 -158 271 -167 0 -7 -61 16 -119
45 -41 21 -66 29 -70 22 -5 -7 -28 -1 -67 19 -32 16 -70 29 -84 29 l-25 0 25
-12 c14 -6 75 -32 135 -59 147 -65 490 -255 530 -295 18 -17 48 -39 66 -48 18
-10 65 -42 104 -71 40 -30 76 -54 81 -54 5 0 23 -12 39 -27 16 -16 32 -27 36
-26 3 1 21 -12 40 -28 l34 -30 -55 29 c-30 16 -82 46 -114 67 -91 58 -258 151
-286 159 -24 7 293 -187 483 -296 101 -57 110 -75 16 -28 -85 43 -69 29 91
-76 174 -115 273 -190 335 -255 58 -60 46 -56 -45 17 -378 301 -1045 616
-1562 739 -133 31 -353 71 -441 80 -65 6 -69 8 -82 38 -19 45 -251 726 -259
760 -5 20 -3 27 8 27 9 0 23 -26 37 -67z m-68 -393 c64 -195 153 -470 198
-610 99 -311 133 -396 160 -403 18 -5 28 8 10 15 -4 2 -11 20 -15 42 -11 56
14 43 38 -21 19 -49 22 -51 70 -62 48 -10 220 -36 296 -44 105 -11 -67 -4
-254 11 l-209 17 -22 75 c-98 330 -167 558 -230 755 -106 332 -141 447 -170
558 -52 202 -23 126 128 -333z m-1406 358 c-3 -8 -6 -5 -6 6 -1 11 2 17 5 13
3 -3 4 -12 1 -19z m47 -134 c3 -8 2 -12 -4 -9 -6 3 -10 10 -10 16 0 14 7 11
14 -7z m5056 -40 c0 -2 -9 0 -20 6 -11 6 -20 13 -20 16 0 2 9 0 20 -6 11 -6
20 -13 20 -16z m-5021 -84 c0 -10 -3 -8 -9 5 -12 27 -12 43 0 25 5 -8 9 -22 9
-30z m18 -72 c-3 -8 -6 -5 -6 6 -1 11 2 17 5 13 3 -3 4 -12 1 -19z m1127 -148
c112 -330 158 -452 291 -765 26 -60 59 -143 73 -183 15 -39 32 -70 37 -68 28
10 399 -18 636 -49 652 -85 1088 -204 1601 -439 245 -112 362 -100 537 54 45
40 84 71 86 69 2 -2 -13 -28 -33 -57 -86 -129 -263 -207 -392 -172 -25 6 -106
38 -180 70 -664 284 -1200 403 -2067 460 -156 10 -286 20 -287 22 -1 1 -35
113 -76 248 -40 135 -122 407 -182 605 -59 198 -108 364 -108 369 0 21 11 -7
64 -164z m3697 4 c-48 -71 -80 -112 -81 -102 0 17 34 77 42 72 4 -3 8 1 8 9 0
8 6 17 14 20 8 3 16 16 18 29 2 13 9 22 16 21 6 -2 12 2 12 9 0 6 2 9 5 6 3
-3 -12 -32 -34 -64z m-4772 -9 c0 -5 -4 -3 -9 5 -5 8 -9 22 -9 30 0 16 17 -16
18 -35z m4757 18 c-10 -10 -19 5 -10 18 6 11 8 11 12 0 2 -7 1 -15 -2 -18z
m-4732 -93 l6 -35 -14 35 c-8 19 -15 42 -15 50 -1 26 16 -10 23 -50z m4657
-53 c-10 -9 -11 -8 -5 6 3 10 9 15 12 12 3 -3 0 -11 -7 -18z m-321 -54 c-1 -5
-8 -19 -16 -33 -8 -14 -13 -17 -10 -7 3 10 6 25 6 33 0 8 5 14 10 14 6 0 10
-3 10 -7z m-30 -71 c0 -5 -7 -17 -15 -28 -14 -18 -14 -17 -4 9 12 27 19 34 19
19z m-4152 -342 c0 -8 -6 1 -13 20 -7 19 -13 42 -13 50 0 8 6 -1 13 -20 7 -19
13 -42 13 -50z m1752 34 c85 -14 171 -30 190 -35 19 -4 78 -18 130 -30 244
-54 654 -194 845 -289 66 -33 136 -62 155 -65 19 -3 78 -30 130 -59 52 -30
129 -72 170 -94 41 -23 72 -42 69 -42 -3 0 -73 29 -156 64 -512 220 -915 315
-1518 356 -88 7 -160 12 -161 13 -3 4 -64 215 -64 220 0 3 12 1 28 -4 15 -4
97 -20 182 -35z m4026 -13 c5 -5 133 -73 284 -151 305 -157 443 -231 1345
-708 301 -159 376 -203 414 -241 67 -67 87 -141 56 -201 -9 -17 -17 -30 -20
-30 -2 0 -2 26 1 58 3 41 1 49 -4 27 -5 -17 -14 -40 -20 -50 -11 -18 -12 -17
-6 8 4 16 2 27 -5 27 -6 0 -8 8 -5 18 5 14 4 15 -5 2 -6 -8 -16 -32 -22 -54
-13 -48 -87 -124 -149 -153 -122 -57 -1008 -394 -1033 -392 -33 1 235 117 598
259 394 154 467 189 500 237 30 45 33 111 8 155 -32 54 -106 94 -1623 888
-234 122 -434 227 -444 232 -17 9 -12 14 40 44 63 36 75 39 90 25z m-5750 -98
c75 -258 103 -357 100 -361 -5 -4 -12 20 -86 272 -43 149 -42 146 -36 146 3 0
12 -26 22 -57z m5546 -82 c40 -21 204 -109 363 -194 160 -85 387 -205 505
-267 268 -140 611 -323 840 -448 281 -153 289 -161 252 -245 -14 -32 -32 -52
-64 -71 -51 -30 -550 -233 -838 -341 -107 -41 -249 -95 -315 -120 -66 -26
-194 -75 -285 -110 -91 -34 -205 -80 -255 -100 -49 -21 -146 -59 -215 -86
-132 -50 -511 -202 -545 -219 -180 -86 -771 -324 -1440 -579 -494 -189 -472
-183 -610 -188 -198 -8 -298 31 -570 224 -82 58 -195 138 -250 176 -55 39
-219 157 -365 262 -146 105 -328 236 -404 290 -375 268 -442 317 -456 331 -61
60 191 -103 520 -337 116 -83 215 -147 220 -144 6 3 13 -1 16 -9 3 -9 11 -13
17 -9 5 3 7 2 4 -4 -3 -5 28 -34 71 -63 42 -30 79 -57 82 -60 3 -4 23 -19 45
-33 22 -15 69 -47 105 -72 49 -35 56 -38 29 -13 -21 18 -49 42 -65 53 -15 11
-32 25 -38 31 -6 6 -24 17 -40 25 -40 19 -54 43 -36 64 12 15 14 15 23 -1 9
-16 11 -16 24 2 14 18 15 18 8 -3 -7 -26 -3 -28 27 -12 11 6 18 7 14 1 -3 -5
8 -15 24 -22 17 -7 45 -25 63 -41 32 -28 54 -38 42 -19 -9 14 25 1 60 -24 46
-33 85 -57 85 -52 0 5 -240 175 -410 291 -271 185 -538 376 -572 409 -38 37
-56 94 -43 138 13 43 58 90 106 112 46 22 48 24 33 45 -18 26 -83 60 -104 54
-8 -2 -5 2 7 8 19 10 29 8 64 -17 23 -16 46 -39 52 -52 10 -21 8 -27 -13 -43
-104 -80 -126 -115 -113 -179 8 -44 59 -85 338 -276 143 -98 341 -234 440
-302 463 -320 439 -307 543 -299 53 4 106 21 252 80 330 133 621 253 795 327
310 132 773 320 784 320 11 -1 -110 -61 -227 -111 -64 -28 -119 -53 -121 -55
-3 -3 1 -10 9 -17 10 -9 11 -9 6 1 -5 8 1 12 21 12 25 -1 26 -2 11 -14 -19
-14 -25 -46 -9 -46 5 0 12 9 16 20 3 11 12 19 18 17 7 -1 12 9 12 24 -1 21 3
25 19 21 13 -3 17 -1 12 6 -7 12 5 16 33 13 8 -2 10 2 5 10 -5 8 -3 10 6 4 10
-6 9 -11 -5 -22 -11 -7 -14 -13 -8 -13 5 0 8 -12 6 -27 -3 -21 0 -18 11 10 21
56 49 82 142 129 45 23 80 46 78 50 -2 3 6 10 18 13 13 4 48 19 78 32 126 58
478 206 660 278 107 42 283 114 391 160 107 46 312 131 455 189 521 210 680
276 704 295 15 11 26 30 28 49 4 37 -20 57 -168 134 -123 65 -598 316 -685
363 -33 17 -100 53 -150 80 -170 90 -345 187 -345 190 0 5 83 55 92 55 3 0 39
-18 80 -39z m-4307 -96 c19 -55 34 -104 32 -109 -3 -9 -16 24 -52 134 -10 30
-20 62 -23 70 -3 8 -2 13 1 9 4 -3 22 -50 42 -104z m775 11 c329 -43 584 -101
900 -205 189 -63 436 -159 428 -167 -2 -2 -64 19 -138 47 -341 127 -735 230
-1045 274 -235 33 -429 55 -482 55 -48 0 -73 8 -73 23 0 14 174 3 410 -27z
m3407 -83 c35 -19 65 -38 68 -42 4 -7 -248 -111 -267 -111 -4 0 -51 24 -104
54 l-96 54 109 58 c59 31 115 61 123 65 9 5 32 -2 60 -18 25 -14 73 -41 107
-60z m-3509 -50 c-10 -2 -28 -2 -40 0 -13 2 -5 4 17 4 22 1 32 -1 23 -4z
m3790 -108 c59 -30 115 -60 126 -68 17 -13 17 -14 -10 -25 -16 -6 -146 -59
-289 -118 -143 -59 -277 -110 -297 -115 -34 -8 -42 -5 -109 41 -40 28 -69 50
-65 50 5 0 42 -18 83 -41 41 -23 76 -39 79 -36 5 4 -178 110 -206 119 -20 6 7
20 240 116 107 45 220 92 250 106 30 14 63 25 73 25 10 1 67 -24 125 -54z
m-755 11 c18 -13 52 -34 76 -46 24 -12 39 -25 35 -29 -5 -5 -31 -16 -59 -26
-27 -10 -63 -23 -80 -30 -16 -8 -59 -25 -95 -38 -36 -14 -82 -32 -103 -41 -35
-15 -38 -15 -44 1 -4 9 -18 27 -31 38 l-24 21 143 87 c79 47 145 86 147 87 2
0 18 -11 35 -24z m-4805 -81 c0 -5 -6 4 -13 20 -8 17 -14 37 -14 45 0 8 7 -1
14 -20 7 -19 13 -39 13 -45z m21 -65 c1 -13 0 -13 -9 0 -5 8 -9 24 -9 35 l0
20 9 -20 c5 -11 9 -27 9 -35z m5921 -70 c66 -33 120 -63 120 -68 0 -6 -38 -22
-280 -112 l-75 -28 -120 66 -119 66 54 25 c129 59 257 110 278 110 12 1 76
-26 142 -59z m-5913 28 c-3 -8 -6 -5 -6 6 -1 11 2 17 5 13 3 -3 4 -12 1 -19z
m4376 -70 c4 -13 -198 -101 -217 -95 -5 2 13 17 40 34 109 69 167 89 177 61z
m496 -109 c24 -13 44 -28 43 -33 -1 -10 -335 -146 -359 -146 -8 0 -12 4 -8 9
3 5 -33 35 -80 67 l-86 57 46 25 c58 33 52 38 -14 12 -52 -20 -91 -27 -77 -13
4 4 82 37 173 74 l167 66 75 -47 c42 -26 96 -58 120 -71z m546 -46 c65 -38
118 -72 117 -77 0 -5 -23 -17 -49 -26 -26 -9 -102 -40 -168 -67 -154 -65 -165
-68 -165 -50 0 7 -12 19 -27 26 -44 20 -183 104 -183 111 0 3 12 11 28 17 30
13 327 133 328 133 0 0 54 -30 119 -67z m841 10 c59 -31 101 -59 93 -61 -8 -2
-77 -29 -154 -58 -76 -30 -155 -54 -174 -54 -22 0 -60 16 -112 46 -44 26 -79
50 -79 54 0 7 288 129 307 130 7 0 60 -26 119 -57z m-6177 -53 c0 -9 -4 -8 -9
5 -5 11 -9 27 -9 35 0 9 4 8 9 -5 5 -11 9 -27 9 -35z m5669 -117 c37 -20 82
-45 101 -56 l33 -20 -23 -12 c-13 -7 -93 -38 -178 -70 l-154 -58 -98 49 c-54
27 -98 51 -98 54 -1 3 38 23 87 43 48 20 123 52 167 71 44 19 84 35 88 35 5 1
39 -15 75 -36z m-870 -32 c42 -26 97 -58 121 -70 24 -13 40 -26 35 -31 -5 -5
-45 -22 -89 -39 -44 -16 -118 -43 -165 -61 -52 -19 -86 -27 -88 -21 -2 6 -46
37 -99 68 l-95 57 49 12 c26 7 73 27 103 44 30 18 46 29 35 25 -34 -11 -80
-18 -74 -11 7 7 170 76 182 76 4 0 42 -22 85 -49z m-2348 10 c-8 -5 -26 -11
-40 -15 -21 -5 -20 -3 5 9 32 15 60 20 35 6z m1900 -9 c0 -4 -64 -33 -142 -64
-175 -68 -192 -74 -187 -59 3 7 62 36 132 65 71 30 131 57 134 60 9 9 63 7 63
-2z m-2205 -31 c-6 -5 -100 -43 -210 -86 -249 -96 -238 -91 -224 -116 13 -26
21 -24 189 41 69 26 136 51 150 54 l25 7 -25 -15 c-30 -16 -327 -136 -339
-136 -7 0 -16 37 -21 84 -2 12 110 55 430 169 24 9 35 8 25 -2z m170 -11 c-22
-10 -44 -18 -50 -18 -5 0 8 8 30 19 22 10 45 18 50 18 6 0 -8 -9 -30 -19z
m-75 -29 c-8 -5 -26 -11 -40 -15 -21 -5 -20 -3 5 9 32 15 60 20 35 6z m-90
-35 c-14 -7 -36 -16 -50 -20 -14 -3 -7 3 15 14 45 22 74 27 35 6z m1010 -24
c0 -6 -224 -99 -402 -167 -10 -4 -18 -3 -18 3 0 10 43 29 270 118 142 56 150
59 150 46z m2068 -62 c87 -57 105 -80 62 -80 -10 0 -59 -16 -109 -35 -49 -19
-97 -35 -106 -35 -8 0 -56 23 -105 50 -50 28 -96 48 -103 44 -9 -5 -9 -4 -1 5
14 15 233 110 254 111 8 0 57 -27 108 -60z m-845 -30 c59 -35 104 -67 100 -71
-12 -10 -266 -113 -383 -154 -58 -21 -122 -46 -144 -57 -27 -14 -41 -17 -49
-9 -6 6 -9 13 -6 15 4 4 274 118 453 192 74 30 77 33 55 44 -53 27 -139 86
-144 98 -2 7 -1 11 3 9 4 -2 55 -32 115 -67z m-476 43 c2 -6 -9 -14 -24 -18
-15 -3 -85 -31 -155 -61 -129 -55 -148 -61 -148 -45 0 4 62 34 138 65 75 31
144 61 152 66 17 11 32 8 37 -7z m-2710 -136 c12 -17 27 -44 34 -59 15 -34 26
-35 89 -3 47 24 192 75 212 75 5 0 8 -8 6 -17 -2 -11 -36 -30 -98 -53 -52 -21
-121 -49 -152 -63 -52 -24 -58 -25 -58 -9 0 33 -20 90 -45 126 -13 20 -21 36
-17 36 4 0 17 -15 29 -33z m3657 -47 c70 -44 84 -56 70 -62 -11 -4 -251 -99
-534 -211 -525 -209 -570 -225 -570 -207 0 5 7 10 15 10 8 0 118 47 245 105
217 99 456 201 668 282 150 58 100 47 -81 -17 -170 -60 -347 -133 -517 -213
-52 -24 -108 -50 -125 -58 -16 -7 -34 -15 -39 -17 -5 -3 -5 2 -1 9 6 10 2 9
-11 -2 -26 -22 -49 -29 -114 -36 -30 -3 -59 -9 -65 -13 -10 -8 -39 -13 -62
-11 -7 1 -10 8 -6 18 4 11 3 14 -5 9 -14 -8 -94 33 -86 45 2 4 21 13 42 20 70
22 216 81 272 109 30 15 156 68 280 118 124 49 252 102 285 117 33 15 94 40
135 55 63 24 78 26 95 16 11 -7 60 -37 109 -66z m-2229 11 c-10 -8 -43 -22
-250 -102 -112 -44 -105 -42 -105 -30 0 8 168 80 283 122 56 20 87 24 72 10z
m845 2 c0 -9 -299 -133 -318 -133 -7 0 -12 5 -12 10 0 6 4 10 10 10 5 0 74 27
152 60 141 59 168 67 168 53z m4159 -251 c-15 -55 -79 -126 -140 -157 -62 -32
-257 -112 -579 -238 -140 -54 -311 -122 -380 -149 -69 -27 -242 -94 -385 -148
-326 -123 -686 -265 -1188 -469 -605 -246 -687 -279 -1142 -456 -303 -119
-341 -133 -632 -244 -233 -88 -268 -95 -463 -95 -154 -1 -170 1 -241 26 -42
15 -101 41 -130 59 -70 41 -275 187 -291 208 -7 8 14 -5 47 -30 71 -54 270
-174 304 -184 20 -6 23 -4 18 10 -4 9 -7 63 -7 119 l0 102 -45 22 c-77 37
-198 119 -729 494 -384 272 -630 449 -641 462 -5 7 -75 56 -153 109 -79 54
-174 121 -210 151 -37 29 -104 77 -150 107 -50 33 -82 60 -82 71 0 17 94 -46
280 -187 30 -23 136 -97 235 -165 99 -68 191 -132 205 -142 14 -10 88 -66 165
-125 77 -58 187 -140 245 -181 58 -42 121 -87 139 -101 19 -14 31 -20 26 -12
-9 15 23 -6 156 -108 163 -123 405 -285 476 -317 116 -54 226 -76 388 -76 111
-1 157 3 220 20 93 24 384 129 740 267 138 53 275 106 305 116 30 11 87 33
125 49 39 16 131 52 205 80 232 87 525 203 635 250 22 10 92 37 155 60 130 47
194 74 295 121 39 18 77 34 85 35 8 2 23 7 35 13 11 5 64 26 119 46 54 19 112
43 130 52 17 9 36 18 41 19 6 1 91 34 190 74 521 209 660 264 945 373 439 168
593 235 653 281 l32 25 3 -97 c2 -54 -2 -116 -9 -140z m-6720 124 c-2 -2 -62
-27 -134 -56 -141 -55 -197 -87 -232 -128 -28 -33 -31 -15 -4 20 27 33 102 73
239 123 110 41 141 50 131 41z m2122 -50 c0 -8 -305 -136 -323 -136 -5 0 -8 4
-8 9 0 12 304 141 323 137 5 -1 8 -5 8 -10z m-868 -3 c7 -6 -318 -143 -340
-143 -41 0 5 26 140 78 210 82 190 76 200 65z m1629 -28 c1 -14 -303 -137
-321 -130 -8 3 -11 9 -5 14 7 7 231 104 284 124 21 8 41 4 42 -8z m-1202 -140
c10 -12 9 -16 -6 -22 -11 -4 -80 -30 -154 -59 -82 -32 -139 -49 -144 -44 -5 6
-7 12 -4 15 7 7 280 125 289 125 4 0 12 -7 19 -15z m-1426 -9 c-3 -8 3 -16 15
-19 12 -3 21 -10 21 -17 0 -7 -11 -5 -30 7 -38 22 -39 29 -3 42 1 1 0 -5 -3
-13z m2165 -12 c18 -9 30 -21 29 -26 -2 -6 -49 -27 -103 -48 -55 -21 -123 -47
-151 -58 l-51 -21 -47 34 c-29 20 -42 35 -34 38 7 3 3 6 -8 6 -27 1 -72 36
-61 48 5 4 13 0 18 -10 6 -9 15 -17 20 -17 6 0 7 6 3 13 -5 7 0 6 11 -3 14
-11 19 -12 22 -2 3 6 19 12 36 12 18 1 43 7 57 15 24 15 23 15 -30 14 -30 0
-91 1 -135 2 -44 2 15 6 130 9 116 3 222 7 236 8 14 1 40 -5 58 -14z m-1619
-2 c0 -8 -350 -152 -369 -152 -5 0 -12 4 -16 10 -9 15 67 50 220 101 147 50
165 54 165 41z m443 -134 c15 -5 27 -13 27 -18 0 -4 -64 -33 -142 -65 -79 -32
-196 -80 -261 -107 -94 -39 -122 -46 -133 -37 -8 6 -14 18 -14 26 0 7 -36 37
-80 65 -44 29 -78 54 -75 56 5 5 98 -51 147 -90 l37 -29 103 44 c57 24 151 63
210 86 58 23 114 49 125 57 16 13 15 13 -9 4 -23 -8 -28 -7 -28 5 0 14 -11 19
-37 16 -7 -1 -13 5 -13 13 0 10 6 13 18 10 9 -4 -7 10 -35 30 -86 60 -60 60
40 0 50 -30 104 -60 120 -66z m661 6 c58 -37 106 -70 106 -74 0 -4 -73 -37
-162 -73 -90 -36 -302 -122 -472 -191 l-309 -126 -21 23 c-12 12 -49 44 -83
71 -35 27 -63 51 -63 53 0 10 81 -43 120 -78 l42 -39 142 62 c77 34 193 83
256 108 211 87 271 113 267 117 -2 2 -16 -1 -31 -6 -18 -7 -26 -7 -26 0 0 6
-4 8 -9 4 -11 -6 -61 40 -61 55 0 6 -11 10 -25 10 -22 0 -30 9 -26 32 0 4 -13
2 -30 -4 -16 -6 -32 -8 -35 -6 -2 3 31 19 73 36 43 17 107 44 143 61 36 16 72
30 81 31 9 0 64 -30 123 -66z m767 -15 c102 -63 121 -79 95 -79 -9 0 -73 -23
-143 -51 -189 -76 -168 -75 -264 -14 -97 62 -133 89 -107 81 9 -3 22 2 29 10
7 8 18 13 25 10 18 -7 75 14 68 25 -5 9 0 11 29 13 6 1 14 4 17 8 7 8 122 56
139 57 8 1 58 -26 112 -60z m204 33 c-3 -3 -11 0 -18 7 -9 10 -8 11 6 5 10 -3
15 -9 12 -12z m-3265 -226 c0 -56 2 -60 43 -97 51 -46 29 -53 -26 -8 l-37 30
0 82 c0 57 3 77 10 67 5 -8 10 -41 10 -74z m2612 -3 c54 -35 100 -68 103 -73
3 -4 -12 -14 -32 -20 -21 -7 -85 -32 -141 -56 -57 -24 -108 -44 -112 -44 -11
0 -179 120 -187 133 -4 6 10 1 31 -11 28 -17 42 -20 56 -12 18 10 17 50 -2 50
-5 0 26 18 69 41 43 23 82 47 86 55 5 8 14 11 20 7 7 -3 56 -35 109 -70z
m-2390 -165 c0 -50 3 -56 46 -100 54 -56 38 -64 -24 -12 l-44 35 0 77 c0 56 3
73 11 65 6 -6 11 -35 11 -65z m1917 8 c36 -24 86 -56 110 -71 24 -14 39 -30
35 -35 -5 -4 -49 -24 -99 -45 -334 -138 -408 -166 -422 -160 -26 9 -7 20 144
84 177 75 245 110 218 111 l-20 1 20 9 c11 5 27 9 35 9 13 1 13 0 0 -9 -26
-17 11 -12 40 6 l25 15 -28 -6 c-19 -4 -26 -2 -22 4 4 7 -1 8 -11 4 -12 -4
-15 -3 -10 5 5 8 -1 12 -16 12 -13 0 -34 12 -48 26 -13 14 -36 31 -50 37 -25
10 -25 11 -2 14 12 3 22 11 22 19 0 21 6 18 79 -30z m-1671 -177 c2 -63 3 -65
49 -106 61 -54 49 -67 -17 -18 -48 35 -50 39 -50 85 0 26 -3 62 -7 80 -5 25
-3 32 8 28 10 -3 15 -24 17 -69z m117 -67 c-2 -2 -14 0 -27 4 -22 7 -22 7 -3
14 17 6 41 -8 30 -18z m3370 -25 c-49 -33 -995 -395 -995 -381 0 18 810 343
943 379 67 18 76 18 52 2z m-3224 -101 l-3 -58 54 -48 c29 -26 50 -51 46 -55
-12 -13 -118 76 -118 99 0 11 -3 45 -7 75 -5 48 -4 53 12 49 16 -3 18 -11 16
-62z m-821 -26 c0 -5 -4 -10 -10 -10 -5 0 -10 5 -10 10 0 6 5 10 10 10 6 0 10
-4 10 -10z m1338 -432 c28 -21 52 -41 52 -44 0 -5 -107 71 -125 89 -17 17 15
-3 73 -45z m-680 17 c-3 -3 -9 2 -12 12 -6 14 -5 15 5 6 7 -7 10 -15 7 -18z
m412 -102 c0 -7 -39 17 -46 28 -3 6 5 3 20 -6 14 -10 26 -19 26 -22z m351 20
c13 -16 12 -17 -3 -4 -10 7 -18 15 -18 17 0 8 8 3 21 -13z m109 -79 c0 -3 -20
9 -45 26 -25 17 -45 33 -45 36 0 3 20 -9 45 -26 25 -17 45 -33 45 -36z m-405
18 c-3 -3 -11 0 -18 7 -9 10 -8 11 6 5 10 -3 15 -9 12 -12z m436 -39 c13 -16
12 -17 -3 -4 -17 13 -22 21 -14 21 2 0 10 -8 17 -17z m40 -30 c13 -16 12 -17
-3 -4 -10 7 -18 15 -18 17 0 8 8 3 21 -13z m-110 -200 c13 -16 12 -17 -3 -4
-10 7 -18 15 -18 17 0 8 8 3 21 -13z m164 -121 c-3 -3 -11 0 -18 7 -9 10 -8
11 6 5 10 -3 15 -9 12 -12z m61 -43 c3 -6 -5 -3 -20 6 -14 10 -26 19 -26 22 0
7 39 -17 46 -28z"/>
<path d="M4125 8999 c-59 -45 -67 -57 -12 -18 42 29 65 50 55 49 -2 0 -21 -14
-43 -31z"/>
<path d="M4252 6570 c0 -14 2 -19 5 -12 2 6 2 18 0 25 -3 6 -5 1 -5 -13z"/>
<path d="M3218 8103 c7 -3 16 -2 19 1 4 3 -2 6 -13 5 -11 0 -14 -3 -6 -6z"/>
<path d="M2882 7988 c-62 -22 -111 -43 -109 -45 5 -4 198 61 223 76 34 19 0
10 -114 -31z"/>
<path d="M2725 7930 c-13 -6 -15 -9 -5 -9 8 0 22 4 30 9 18 12 2 12 -25 0z"/>
<path d="M2670 7910 c-8 -5 -10 -10 -5 -10 6 0 17 5 25 10 8 5 11 10 5 10 -5
0 -17 -5 -25 -10z"/>
<path d="M2562 7873 c-24 -8 -41 -17 -39 -19 4 -5 97 26 97 32 0 6 -11 4 -58
-13z"/>
<path d="M2230 7750 c-8 -5 -10 -10 -5 -10 6 0 17 5 25 10 8 5 11 10 5 10 -5
0 -17 -5 -25 -10z"/>
<path d="M2165 7725 c-25 -12 -26 -14 -5 -9 28 7 60 23 45 23 -5 0 -23 -6 -40
-14z"/>
<path d="M2095 7700 c-19 -8 -19 -9 2 -9 12 -1 25 4 28 9 7 12 -2 12 -30 0z"/>
<path d="M2038 7673 c7 -3 16 -2 19 1 4 3 -2 6 -13 5 -11 0 -14 -3 -6 -6z"/>
<path d="M1978 7653 c7 -3 16 -2 19 1 4 3 -2 6 -13 5 -11 0 -14 -3 -6 -6z"/>
<path d="M1930 7640 c-13 -8 -13 -10 2 -10 9 0 20 5 23 10 8 13 -5 13 -25 0z"/>
<path d="M1795 7590 c-13 -6 -15 -9 -5 -9 8 0 22 4 30 9 18 12 2 12 -25 0z"/>
<path d="M1580 7510 c-8 -5 -10 -10 -5 -10 6 0 17 5 25 10 8 5 11 10 5 10 -5
0 -17 -5 -25 -10z"/>
<path d="M1480 7475 c-19 -7 -28 -14 -20 -14 8 0 29 6 45 14 39 17 21 18 -25
0z"/>
<path d="M1380 7440 c-8 -5 -10 -10 -5 -10 6 0 17 5 25 10 8 5 11 10 5 10 -5
0 -17 -5 -25 -10z"/>
<path d="M1285 7405 c-25 -12 -26 -14 -5 -9 28 7 60 23 45 23 -5 0 -23 -6 -40
-14z"/>
<path d="M1185 7369 c-54 -22 -75 -36 -35 -24 37 12 107 44 95 44 -5 0 -32 -9
-60 -20z"/>
<path d="M6315 7569 c-468 -21 -791 -42 -801 -53 -12 -12 -124 -289 -124 -306
0 -16 981 -14 1002 3 9 6 44 64 79 127 34 63 80 143 101 178 l38 62 -63 -2
c-34 0 -138 -4 -232 -9z"/>
<path d="M5330 7015 c-7 -25 -11 -47 -9 -49 2 -2 137 -5 299 -7 l295 -4 22 44
c13 25 22 45 20 46 -1 1 -140 5 -308 9 l-306 6 -13 -45z"/>
<path d="M6163 7053 c-28 -5 -72 -50 -79 -80 -19 -74 107 -55 145 22 13 26 12
30 -9 47 -12 10 -25 17 -29 17 -3 -1 -16 -4 -28 -6z"/>
<path d="M5292 6859 c-28 -76 -28 -76 46 -82 37 -4 132 -9 212 -13 l145 -6 23
46 c12 26 22 48 22 50 0 2 -71 7 -157 10 -87 4 -186 9 -220 12 -59 6 -63 5
-71 -17z"/>
<path d="M5995 6820 c-25 -26 -27 -34 -19 -58 8 -22 16 -27 49 -30 33 -2 45 2
67 25 26 28 31 42 29 76 -1 14 -10 17 -49 17 -41 0 -53 -5 -77 -30z"/>
<path d="M5228 6644 c-8 -27 -14 -50 -14 -50 1 -1 100 -9 221 -18 121 -9 232
-19 247 -21 25 -4 31 1 53 45 l25 50 -22 4 c-13 2 -106 9 -208 16 -102 6 -208
13 -237 16 l-51 6 -14 -48z"/>
<path d="M5931 6646 c-53 -29 -68 -100 -24 -117 77 -29 161 63 105 114 -22 20
-48 21 -81 3z"/>
<path d="M5191 6497 c-6 -8 -12 -32 -14 -53 -2 -38 -1 -39 33 -42 19 -1 98 -9
175 -17 77 -8 166 -17 198 -20 l58 -5 20 46 c11 26 18 49 15 51 -5 6 -29 8
-261 28 -99 9 -187 18 -196 21 -9 2 -21 -2 -28 -9z"/>
<path d="M5825 6435 c-27 -26 -33 -73 -13 -93 30 -30 101 -3 119 45 24 63 -56
99 -106 48z"/>
<path d="M5141 6283 c-14 -50 -14 -63 2 -63 7 0 67 -7 132 -15 182 -23 177
-23 197 31 11 32 13 46 5 49 -15 4 -286 35 -309 35 -11 0 -21 -13 -27 -37z"/>
<path d="M5749 6241 c-31 -31 -39 -77 -17 -99 19 -19 65 -14 92 11 36 32 43
70 17 96 -29 29 -57 26 -92 -8z"/>
<path d="M5102 6113 c-6 -26 -10 -49 -8 -50 5 -6 359 -54 374 -51 16 3 45 74
36 89 -3 5 -16 9 -29 9 -13 0 -95 11 -182 25 -87 14 -163 25 -170 25 -6 0 -16
-21 -21 -47z"/>
<path d="M5673 6058 c-31 -34 -37 -65 -19 -93 35 -53 126 -13 126 54 0 59 -66
83 -107 39z"/>
<path d="M5075 5954 c-3 -25 -4 -48 -2 -51 6 -5 258 -42 293 -43 16 0 24 8 28
28 4 15 9 34 12 43 4 13 -19 19 -143 38 -82 13 -155 25 -164 27 -13 4 -18 -6
-24 -42z"/>
<path d="M5056 5796 c-12 -46 -7 -64 22 -70 62 -13 331 -55 388 -62 94 -10 92
-6 58 -136 -34 -131 -36 -216 -3 -113 18 55 70 287 66 291 -1 1 -54 10 -117
18 -110 16 -175 30 -337 73 l-72 19 -5 -20z"/>
<path d="M5051 5647 c-12 -30 -40 -200 -43 -262 l-3 -50 35 -3 c19 -1 111 -17
203 -33 93 -17 172 -27 177 -23 9 11 85 333 79 337 -6 5 -390 58 -417 57 -14
0 -26 -8 -31 -23z"/>
<path d="M3175 7315 c-197 -69 -625 -321 -625 -369 0 -9 65 -107 96 -145 1 -2
41 27 88 64 179 143 436 295 574 340 28 9 52 18 52 20 0 15 -86 115 -99 115
-9 -1 -47 -12 -86 -25z"/>
<path d="M3365 6945 c-147 -60 -303 -154 -460 -274 -78 -60 -303 -260 -304
-272 -1 -3 28 -29 65 -58 l65 -52 102 98 c221 212 519 408 676 445 28 6 51 14
51 18 0 4 -18 35 -40 68 -25 39 -46 62 -57 61 -10 0 -54 -15 -98 -34z"/>
<path d="M2380 6825 c-80 -64 -146 -119 -148 -123 -3 -10 254 -222 270 -222
22 0 156 110 171 141 17 36 9 77 -21 119 -87 118 -121 168 -124 183 -2 15 -33
-5 -148 -98z"/>
<path d="M3553 6620 c-114 -49 -237 -122 -344 -202 -86 -65 -264 -229 -279
-258 -7 -14 3 -26 55 -63 l64 -46 98 97 c112 111 242 212 347 269 65 35 196
94 238 107 14 4 10 15 -25 70 -23 36 -46 65 -52 65 -5 1 -51 -17 -102 -39z"/>
<path d="M3810 6065 c-68 -50 -214 -132 -250 -140 -30 -7 -31 -8 -14 -26 9
-10 25 -19 35 -19 21 0 153 96 229 168 64 59 64 64 0 17z"/>
<path d="M3875 5913 c-101 -52 -216 -125 -212 -136 7 -23 28 -15 138 59 155
103 185 134 74 77z"/>
<path d="M3357 5903 c-18 -18 2 -46 108 -150 115 -112 116 -113 163 -112 l47
0 -110 106 c-105 100 -180 163 -195 163 -4 0 -10 -3 -13 -7z"/>
<path d="M3990 5841 c-47 -21 -101 -47 -120 -58 -143 -81 -133 -73 -115 -93
16 -18 19 -18 49 -3 44 23 286 181 286 188 0 9 -13 5 -100 -34z"/>
<path d="M4008 5632 c-124 -62 -173 -99 -157 -118 9 -11 16 -11 43 3 58 30
224 134 236 148 24 29 -25 16 -122 -33z"/>
<path d="M4185 5545 c-109 -54 -227 -126 -232 -141 -9 -27 32 -23 86 7 99 56
251 158 251 169 0 15 -8 13 -105 -35z"/>
<path d="M4208 5392 c-74 -39 -108 -62 -108 -74 0 -11 8 -18 20 -18 28 0 224
115 228 134 6 28 -29 17 -140 -42z"/>
<path d="M4800 4695 c0 -5 5 -17 10 -25 5 -8 10 -10 10 -5 0 6 -5 17 -10 25
-5 8 -10 11 -10 5z"/>
<path d="M4670 4615 c25 -28 77 -88 115 -134 39 -46 83 -98 99 -115 24 -26 23
-24 -5 14 -50 68 -113 145 -121 148 -5 2 -8 8 -8 12 0 9 -19 29 -86 90 -36 33
-36 32 6 -15z"/>
<path d="M4836 4605 c4 -16 7 -38 8 -47 0 -10 4 -14 8 -10 5 5 1 26 -7 48 -11
28 -13 31 -9 9z"/>
<path d="M4895 4450 c12 -40 26 -59 19 -25 -4 17 -11 35 -16 40 -7 7 -8 1 -3
-15z"/>
<path d="M4921 4323 c-1 -17 16 -25 25 -12 4 7 3 9 -4 5 -5 -3 -13 0 -15 6 -4
9 -6 10 -6 1z"/>
<path d="M4950 4291 c0 -5 5 -13 10 -16 6 -3 10 -2 10 4 0 5 -4 13 -10 16 -5
3 -10 2 -10 -4z"/>
<path d="M7628 7303 c6 -2 18 -2 25 0 6 3 1 5 -13 5 -14 0 -19 -2 -12 -5z"/>
<path d="M7680 7290 c0 -5 14 -10 32 -10 36 0 35 4 -4 14 -17 4 -28 2 -28 -4z"/>
<path d="M7758 7273 c7 -3 16 -2 19 1 4 3 -2 6 -13 5 -11 0 -14 -3 -6 -6z"/>
<path d="M1541 5124 c0 -11 3 -14 6 -6 3 7 2 16 -1 19 -3 4 -6 -2 -5 -13z"/>
<path d="M6528 6053 c-18 -21 -31 -43 -25 -43 2 0 13 14 25 30 25 33 24 41 0
13z"/>
<path d="M6465 5980 c-10 -11 -16 -22 -14 -24 2 -2 12 7 22 20 22 29 17 32 -8
4z"/>
<path d="M7830 5640 c-8 -5 -10 -10 -5 -10 6 0 17 5 25 10 8 5 11 10 5 10 -5
0 -17 -5 -25 -10z"/>
<path d="M8015 5500 c-3 -6 1 -7 9 -4 18 7 21 14 7 14 -6 0 -13 -4 -16 -10z"/>
<path d="M6795 5320 c-3 -5 -2 -10 4 -10 5 0 13 5 16 10 3 6 2 10 -4 10 -5 0
-13 -4 -16 -10z"/>
<path d="M2990 5276 c0 -2 9 -6 20 -9 11 -3 18 -1 14 4 -5 9 -34 13 -34 5z"/>
<path d="M3040 5261 c0 -5 7 -11 15 -15 8 -3 15 -1 15 3 0 5 -7 11 -15 15 -8
3 -15 1 -15 -3z"/>
<path d="M3080 5250 c0 -8 163 -80 181 -80 5 0 38 -13 73 -30 36 -16 80 -36
98 -44 18 -7 59 -26 91 -40 73 -33 75 -25 2 10 -30 15 -55 31 -55 36 0 4 -9 8
-20 8 -11 0 -20 4 -20 8 0 5 -46 27 -102 50 -179 72 -248 95 -248 82z"/>
<path d="M3777 4929 c7 -7 15 -10 18 -7 3 3 -2 9 -12 12 -14 6 -15 5 -6 -5z"/>
<path d="M6940 3190 c20 -13 33 -13 25 0 -3 6 -14 10 -23 10 -15 0 -15 -2 -2
-10z"/>
<path d="M6980 3182 c0 -4 31 -24 68 -45 37 -20 99 -55 137 -78 39 -22 86 -50
105 -61 l35 -20 -35 31 c-57 50 -310 191 -310 173z"/>
<path d="M6846 3142 c-14 -22 -401 -190 -413 -179 -2 2 37 21 87 42 50 20 90
39 88 41 -2 2 -150 -53 -328 -122 -179 -69 -397 -153 -485 -186 -236 -89 -255
-101 -255 -162 0 -27 14 -39 130 -108 41 -25 105 -64 142 -87 94 -57 117 -55
303 20 411 166 644 261 895 361 151 61 281 115 288 120 19 16 14 42 -10 66
-23 21 -217 137 -293 175 -46 23 -139 35 -149 19z m168 -157 c55 -30 103 -55
108 -55 6 0 8 -5 6 -12 -2 -6 -40 -24 -84 -41 -43 -16 -160 -61 -258 -100
l-180 -70 -30 18 c-89 54 -174 95 -196 95 -21 0 -22 2 -10 13 31 29 478 206
520 207 14 0 70 -25 124 -55z m-604 -35 c-8 -5 -19 -10 -25 -10 -5 0 -3 5 5
10 8 5 20 10 25 10 6 0 3 -5 -5 -10z m-151 -54 c-2 -3 -83 -36 -179 -74 -96
-38 -215 -86 -264 -106 -48 -21 -90 -36 -92 -34 -7 7 497 215 525 217 8 1 12
-1 10 -3z m111 -157 c119 -68 122 -70 112 -84 -7 -11 -233 -97 -239 -92 -1 2
32 19 74 37 74 33 76 34 47 42 -16 4 -35 6 -41 3 -7 -2 -13 0 -13 6 0 6 -5 7
-11 4 -6 -4 -16 0 -22 9 -7 9 -21 18 -32 20 -11 2 -40 14 -63 26 -29 15 -51
20 -70 16 -25 -7 -26 -6 -7 7 32 22 112 50 124 43 7 -4 8 -1 5 8 -12 30 31 16
136 -45z"/>
<path d="M6682 2793 c-62 -25 -111 -47 -108 -50 5 -5 236 86 236 93 0 7 -15 2
-128 -43z"/>
<path d="M6735 3104 c-38 -19 -59 -31 -45 -28 29 8 140 63 125 63 -5 -1 -41
-16 -80 -35z"/>
<path d="M6630 3060 c-8 -5 -10 -10 -5 -10 6 0 17 5 25 10 8 5 11 10 5 10 -5
0 -17 -5 -25 -10z"/>
<path d="M5288 2570 c-9 -6 -67 -30 -128 -55 -62 -25 -126 -51 -144 -59 -73
-33 -494 -207 -790 -326 -194 -79 -339 -131 -371 -135 -72 -9 -145 13 -231 71
-38 25 -57 34 -42 21 15 -14 24 -28 20 -33 -4 -4 -1 -4 6 0 6 4 12 2 12 -3 0
-6 7 -11 15 -11 9 0 12 -6 8 -17 -4 -11 -3 -14 5 -9 7 4 20 2 29 -3 17 -10 16
-10 -2 -11 -12 0 -16 -3 -9 -8 6 -4 13 -15 17 -25 4 -10 20 -23 37 -28 16 -6
28 -15 25 -19 -3 -5 0 -12 6 -16 8 -4 9 -3 5 4 -12 20 4 14 36 -13 25 -21 40
-25 98 -25 186 0 517 108 965 314 305 141 334 156 302 156 -9 0 -17 4 -17 8 0
5 7 9 15 9 8 0 15 -4 15 -9 0 -4 4 -8 9 -8 18 0 234 104 223 108 -5 1 -26 -6
-46 -18 -48 -27 -76 -26 -76 1 0 16 5 20 20 16 18 -5 20 0 20 43 0 29 5 50 13
53 10 4 10 6 0 6 -7 1 -13 8 -13 16 0 17 -8 18 -32 5z m-18 -36 c0 -8 -5 -12
-10 -9 -6 4 -8 11 -5 16 9 14 15 11 15 -7z m-23 -150 c-15 -8 -32 -12 -37 -9
-18 11 -2 22 32 23 l33 1 -28 -15z"/>
<path d="M5434 2465 c-10 -8 -14 -14 -9 -14 6 0 19 6 29 14 11 8 15 15 10 15
-6 0 -19 -7 -30 -15z"/>
<path d="M3235 2240 c-3 -5 -1 -10 4 -10 6 0 11 5 11 10 0 6 -2 10 -4 10 -3 0
-8 -4 -11 -10z"/>
<path d="M3400 2076 c0 -2 8 -10 18 -17 15 -13 16 -12 3 4 -13 16 -21 21 -21
13z"/>
<path d="M3530 1986 c0 -2 8 -10 18 -17 15 -13 16 -12 3 4 -13 16 -21 21 -21
13z"/>
<path d="M3770 1875 c0 -2 16 -12 35 -24 38 -22 49 -15 13 9 -22 13 -48 22
-48 15z"/>
<path d="M4890 1843 c-33 -15 -163 -64 -315 -120 -38 -15 -104 -37 -145 -50
-43 -13 -59 -21 -36 -17 37 5 151 43 301 99 113 42 250 97 254 101 10 9 -27 1
-59 -13z"/>
<path d="M3875 1758 c12 -30 188 -109 239 -107 12 0 -6 8 -40 18 -57 16 -113
43 -177 85 -22 15 -26 15 -22 4z"/>
<path d="M4188 1643 c29 -2 74 -2 100 0 26 2 2 3 -53 3 -55 0 -76 -1 -47 -3z"/>
<path d="M5255 2910 c-4 -6 -12 -7 -18 -4 -9 5 -9 4 -1 -6 13 -14 58 -4 49 11
-8 12 -22 12 -30 -1z"/>
<path d="M9080 3149 c-81 -39 -236 -101 -550 -223 -80 -31 -291 -116 -470
-188 l-325 -132 2 -85 c0 -47 -1 -72 -3 -56 -2 17 -7 50 -10 73 -3 24 -8 41
-12 38 -7 -8 -7 -9 -16 -113 -5 -67 -4 -83 7 -83 21 0 68 16 217 75 74 30 263
104 420 165 346 135 676 267 711 286 89 46 129 112 129 214 0 38 -3 70 -7 69
-5 0 -46 -19 -93 -40z"/>
<path d="M7590 2551 c-8 -5 -107 -46 -220 -91 -113 -45 -281 -113 -375 -150
-93 -38 -264 -106 -380 -151 -115 -45 -246 -96 -290 -113 l-80 -31 -3 -90 c-2
-70 -6 -93 -19 -102 -9 -7 -13 -13 -7 -13 5 0 -2 -9 -16 -20 -20 -16 -3 -13
80 16 104 36 1248 492 1290 514 32 17 60 86 60 152 0 82 -8 97 -40 79z m-40
-135 l0 -54 -72 -26 c-40 -15 -131 -51 -203 -81 -296 -122 -941 -375 -956
-375 -5 0 -9 24 -9 53 0 64 -35 43 305 178 138 55 327 131 420 169 94 38 235
94 315 125 80 30 154 59 165 64 30 13 35 5 35 -53z"/>
<path d="M7250 2300 c-9 -6 -10 -10 -3 -10 6 0 15 5 18 10 8 12 4 12 -15 0z"/>
<path d="M7155 2260 c-22 -11 -29 -17 -15 -14 29 8 80 33 65 33 -5 0 -28 -8
-50 -19z"/>
<path d="M7085 2230 c-3 -6 1 -7 9 -4 18 7 21 14 7 14 -6 0 -13 -4 -16 -10z"/>
<path d="M6735 2096 c-27 -12 -110 -47 -183 -76 -73 -29 -131 -55 -128 -57 5
-5 320 121 362 146 33 18 1 11 -51 -13z"/>
<path d="M6363 1949 c-18 -5 -33 -14 -33 -19 0 -5 17 -2 38 7 59 24 57 30 -5
12z"/>
<path d="M6150 1972 c-72 -23 -497 -183 -710 -267 -157 -62 -724 -278 -830
-316 -25 -9 -25 -9 -22 -123 l3 -114 37 10 c39 10 916 350 1287 498 l220 88 5
103 c5 100 6 104 28 105 26 1 36 9 31 22 -2 5 -24 2 -49 -6z m-113 -184 c-2
-24 -4 -7 -4 37 0 44 2 63 4 43 2 -21 2 -57 0 -80z m62 10 c1 -27 -3 -48 -9
-48 -6 0 -10 29 -9 68 1 77 17 59 18 -20z"/>
<path d="M4160 1243 l0 -120 31 -7 c43 -8 221 -7 236 2 7 4 12 49 15 120 l3
112 -105 0 c-58 0 -122 3 -142 6 l-38 7 0 -120z"/>
<path d="M4726 2861 c-4 -5 3 -7 14 -4 23 6 26 13 6 13 -8 0 -17 -4 -20 -9z"/>
<path d="M4640 2830 c-9 -6 -10 -10 -3 -10 6 0 15 5 18 10 8 12 4 12 -15 0z"/>
<path d="M4420 2486 c0 -2 19 -16 43 -30 l42 -28 -34 31 c-30 27 -51 39 -51
27z"/>
<path d="M3200 1280 c0 -5 5 -10 10 -10 6 0 10 5 10 10 0 6 -4 10 -10 10 -5 0
-10 -4 -10 -10z"/>
</g>
</svg>
